<?xml version="1.0" standalone="no"?><!DOCTYPE svg PUBLIC "-//W3C//DTD SVG 1.1//EN" "http://www.w3.org/Graphics/SVG/1.1/DTD/svg11.dtd"><svg t="1718698014038" class="icon" viewBox="0 0 1024 1024" version="1.1" xmlns="http://www.w3.org/2000/svg" p-id="11749" xmlns:xlink="http://www.w3.org/1999/xlink"><path d="M557.40416 624.80384c-1.76128-0.8192-177.5616-114.33984-240.72192-230.42048a145.85856 145.85856 0 0 1-24.33024-80.83456c0-82.59584 68.54656-149.7088 152.86272-149.7088 60.0064 0 105.472 48.04608 127.1808 72.37632C595.39456 210.2272 639.09888 163.84 699.51488 163.84c84.33664 0 152.84224 67.11296 152.84224 149.7088 0 28.24192-8.64256 56.09472-24.82176 80.83456-58.65472 105.0624-210.98496 210.1248-240.76288 230.01088l-0.94208 0.4096a26.05056 26.05056 0 0 1-14.4384 4.44416c-4.5056 0-9.46176-1.76128-13.98784-4.44416z m104.93952 71.8848l3.56352 7.3728s6.81984 45.48608-87.87968 39.3216c-94.67904-6.144-149.7088-32.3584-174.6944-47.63648-24.96512-15.27808-64.55296 25.3952-24.96512 48.27136 39.56736 22.85568 216.4736 99.00032 289.19808 43.15136 70.12352-53.80096 72.74496-97.9968 50.60608-125.66528-0.75776-0.88064-1.55648-1.67936-2.56-1.90464 8.31488-7.5776 16.42496-15.36 24.35072-23.3472 9.46176-9.68704 31.58016-31.744 60.0064-31.744 9.46176 0 19.3536 2.6624 28.83584 7.92576 28.42624 16.384 39.26016 49.47968 25.25184 75.776-0.4096 1.35168-1.37216 2.17088-1.78176 3.09248 0 0.53248-0.4096 0.53248-0.4096 0.9216l-4.52608 5.79584c-83.37408 104.12032-114.52416 147.84512-125.80864 165.9904-9.48224 15.4624-35.98336 37.10976-60.8256 37.10976H445.19424c-9.89184 0-19.90656-2.68288-28.42624-7.12704h-0.4096l-0.96256-0.9216c-20.72576-12.77952-86.528-50.70848-113.99168-59.5968-13.59872-3.8912-76.63616-6.59456-127.5904-6.59456C145.8176 826.88 122.88 804.41344 122.88 777.0112V660.8896c0-27.42272 22.9376-49.90976 50.95424-49.90976 21.56544 0 40.09984-5.65248 59.47392-11.42784l2.21184-0.9216c22.1184-6.61504 42.41408-12.3904 65.37216-12.3904 81.57184 0 114.52416 23.40864 156.42624 52.59264l2.21184 1.76128a544.44032 544.44032 0 0 0 49.5616 32.6656c17.6128 10.62912 92.8768 18.96448 140.22656 21.66784 4.79232 0.28672 9.09312 0.88064 13.02528 1.76128z" fill="#fff" p-id="11750"></path></svg>