<?xml version="1.0" standalone="no"?><!DOCTYPE svg PUBLIC "-//W3C//DTD SVG 1.1//EN" "http://www.w3.org/Graphics/SVG/1.1/DTD/svg11.dtd"><svg t="1718698121121" class="icon" viewBox="0 0 1024 1024" version="1.1" xmlns="http://www.w3.org/2000/svg" p-id="16462" xmlns:xlink="http://www.w3.org/1999/xlink"><path d="M713.8 927H550.9c-19.9 0-36-16.1-36-36v-60.3c0-34.4-28-62.3-62.3-62.3-34.4 0-62.3 28-62.3 62.3V891c0 19.9-16.1 36-36 36H191c-51.4 0-93.2-41.8-93.2-93.2V670.1c0-19.9 16.1-36 36-36h60.8c34.4 0 62.3-28 62.3-62.3 0-34.4-28-62.3-62.3-62.3h-60.8c-19.9 0-36-16.1-36-36V311c0-51.4 41.8-93.2 93.2-93.2h135.3v-25.9c0-70 56.9-126.9 126.9-126.9S580 122 580 191.9v25.9h133.8c51.4 0 93.2 41.8 93.2 93.2v133.9h34c3.5 0 6.8 0.5 10 1.4 28.7 4.3 55.1 18.3 74.9 40 21.4 23.4 33.2 53.8 33.2 85.5 0 31.7-11.8 62.1-33.2 85.5-21.2 23.3-50.1 37.7-81.4 40.8-7.6 0.7-15.2 0.8-22.8 0.2H807v135.6c0 51.3-41.8 93.1-93.2 93.1z m-126.9-72h126.9c11.7 0 21.2-9.5 21.2-21.2V662.2c0-19.9 16.1-36 36-36h52.3c1.2 0 2.3 0.1 3.5 0.2 3.6 0.4 7.2 0.4 10.8 0 28.2-2.7 49.5-26.2 49.5-54.6s-21.3-51.9-49.5-54.6l-2.1-0.3H771c-19.9 0-36-16.1-36-36V311c0-11.7-9.5-21.2-21.2-21.2H544c-19.9 0-36-16.1-36-36v-61.9c0-30.3-24.6-54.9-54.9-54.9-30.3 0-54.9 24.6-54.9 54.9v61.9c0 19.9-16.1 36-36 36H191c-11.7 0-21.2 9.5-21.2 21.2v126.4h24.8c74.1 0 134.3 60.3 134.3 134.3S268.6 706 194.6 706h-24.8v127.7c0 11.7 9.5 21.2 21.2 21.2h127.2v-24.3c0-74.1 60.3-134.3 134.3-134.3s134.3 60.3 134.3 134.3V855z" fill="#fff" p-id="16463"></path></svg>