<?xml version="1.0" standalone="no"?><!DOCTYPE svg PUBLIC "-//W3C//DTD SVG 1.1//EN" "http://www.w3.org/Graphics/SVG/1.1/DTD/svg11.dtd"><svg t="1718697599074" viewBox="0 0 1024 1024" version="1.1" xmlns="http://www.w3.org/2000/svg" p-id="6762" xmlns:xlink="http://www.w3.org/1999/xlink"><path d="M373.248 476.16a102.4 102.4 0 0 0 102.4-102.4V102.4a102.4 102.4 0 0 0-102.4-102.4H102.4a102.4 102.4 0 0 0-102.4 102.4v271.36a102.4 102.4 0 0 0 102.4 102.4h270.848zM102.4 342.9376V133.188267a31.675733 31.675733 0 0 1 31.6416-31.6416h208.554667a31.675733 31.675733 0 0 1 31.675733 31.6416v209.749333a31.675733 31.675733 0 0 1-31.675733 31.675733H133.256533A31.6416 31.6416 0 0 1 102.4 342.9376z m819.2 208.4864h-266.24a102.4 102.4 0 0 0-102.4 102.4V921.6a102.4 102.4 0 0 0 102.4 102.4H921.6a102.4 102.4 0 0 0 102.4-102.4v-266.24a102.4 102.4 0 0 0-102.4-103.936z m3.9936 340.548267a32.256 32.256 0 0 1-32.256 32.256h-209.749333a32.256 32.256 0 0 1-32.256-31.061334v-209.7152a32.256 32.256 0 0 1 32.256-32.290133h209.749333a32.256 32.256 0 0 1 32.256 32.290133v208.520534z m-455.0656 12.219733A276.48 276.48 0 0 1 194.56 631.808l51.2 44.032c5.461333 4.608 12.322133 7.168 19.456 7.168a30.72 30.72 0 0 0 19.456-54.272l-102.4-83.968a30.208 30.208 0 0 0-38.4 0l-102.4 83.456a30.958933 30.958933 0 0 0 38.912 48.128l51.2-41.472a337.92 337.92 0 0 0 337.408 330.752 30.72 30.72 0 1 0 0-61.44h1.536zM802.816 256a276.48 276.48 0 0 1 38.912 137.728L787.968 348.16a30.72 30.72 0 1 0-39.424 47.104l102.4 83.968c5.461333 4.437333 12.356267 6.826667 19.456 6.656a30.72 30.72 0 0 0 19.456-6.656l102.4-83.456a30.72 30.72 0 0 0 4.608-43.52 30.208 30.208 0 0 0-43.008-4.608l-51.2 41.472a332.731733 332.731733 0 0 0-47.104-165.888A339.456 339.456 0 0 0 563.2 58.368a30.72 30.72 0 0 0 0 61.44 275.456 275.456 0 0 1 239.616 136.192z" fill="#fff" p-id="6763"></path></svg>